<svg width="149" height="70" viewBox="0 0 149 70" fill="none" xmlns="http://www.w3.org/2000/svg">
<path d="M8.53333 47.7867C2.84444 47.7867 0 45.2267 0 40.1067V29.0133V1.70667L6.82667 0V32.3413C7.39556 32.3982 7.96444 32.4267 8.53333 32.4267C10.8658 32.4267 12.8569 33.1662 14.5067 34.6453C16.2133 36.1244 17.0667 37.9449 17.0667 40.1067C17.0667 42.6667 16.2133 44.6009 14.5067 45.9093C12.8569 47.1609 10.8658 47.7867 8.53333 47.7867ZM8.53333 41.8133C8.98844 41.8133 9.38667 41.6427 9.728 41.3013C10.0693 40.96 10.24 40.5618 10.24 40.1067C10.24 39.6516 10.0693 39.2533 9.728 38.912C9.38667 38.5707 8.98844 38.4 8.53333 38.4C8.07822 38.4 7.68 38.5707 7.33867 38.912C6.99733 39.2533 6.82667 39.6516 6.82667 40.1067C6.82667 40.5618 6.99733 40.96 7.33867 41.3013C7.68 41.6427 8.07822 41.8133 8.53333 41.8133ZM27.3267 40.1067C27.3267 40.5618 27.4973 40.96 27.8387 41.3013C28.18 41.6427 28.5782 41.8133 29.0333 41.8133V47.7867C26.7009 47.7867 24.6813 47.1609 22.9747 45.9093C21.3249 44.6009 20.5 42.6667 20.5 40.1067C20.5 37.9449 21.3249 36.1244 22.9747 34.6453C24.6813 33.1662 26.7009 32.4267 29.0333 32.4267C31.3658 32.4267 33.3569 33.1662 35.0067 34.6453C36.7133 36.1244 37.5667 37.9449 37.5667 40.1067H27.3267ZM30.484 39.2533C30.4271 39.1396 30.3418 39.0258 30.228 38.912C29.8867 38.5707 29.4884 38.4 29.0333 38.4C28.2938 38.4 27.8102 38.6844 27.5827 39.2533H30.484ZM36.7333 69.12L41.1707 61.44C41.6258 62.0658 42.1947 62.4924 42.8773 62.72C43.6169 63.0044 44.4133 63.1467 45.2667 63.1467H51.24V47.872C50.6711 47.8151 50.1022 47.7867 49.5333 47.7867C47.2009 47.7867 45.1813 47.0471 43.4747 45.568C41.8249 44.032 41 42.2116 41 40.1067V32.4267L47.8267 30.72V40.1067C47.8267 40.5618 47.9973 40.96 48.3387 41.3013C48.68 41.6427 49.0782 41.8133 49.5333 41.8133C49.9884 41.8133 50.3867 41.6427 50.728 41.3013C51.0693 40.96 51.24 40.5618 51.24 40.1067V32.4267L58.0667 30.72V65.7067C58.0667 66.7876 57.7538 67.6124 57.128 68.1813C56.5591 68.8071 55.7911 69.12 54.824 69.12H36.7333ZM70.0333 47.7867C67.7009 47.7867 65.6813 47.1609 63.9747 45.9093C62.3249 44.6009 61.5 42.6667 61.5 40.1067C61.5 37.9449 62.3249 36.1244 63.9747 34.6453C65.6813 33.1662 67.7009 32.4267 70.0333 32.4267C72.3658 32.4267 74.3569 33.1662 76.0067 34.6453C77.7133 36.1244 78.5667 37.9449 78.5667 40.1067C78.5667 45.2267 75.7222 47.7867 70.0333 47.7867ZM70.0333 41.8133C70.4884 41.8133 70.8867 41.6427 71.228 41.3013C71.5693 40.96 71.74 40.5618 71.74 40.1067C71.74 39.6516 71.5693 39.2533 71.228 38.912C70.8867 38.5707 70.4884 38.4 70.0333 38.4C69.5782 38.4 69.18 38.5707 68.8387 38.912C68.4973 39.2533 68.3267 39.6516 68.3267 40.1067C68.3267 40.5618 68.4973 40.96 68.8387 41.3013C69.18 41.6427 69.5782 41.8133 70.0333 41.8133ZM88.8267 47.7867L82 49.4933V29.0133C82.8533 30.4924 84.048 31.4311 85.584 31.8293C87.1769 32.2276 88.8267 32.4267 90.5333 32.4267C92.8658 32.4267 94.8569 33.1662 96.5067 34.6453C98.2133 36.1244 99.0667 37.9449 99.0667 40.1067V47.7867L92.24 49.4933V40.1067C92.24 39.6516 92.0693 39.2533 91.728 38.912C91.3867 38.5707 90.9884 38.4 90.5333 38.4C90.0782 38.4 89.68 38.5707 89.3387 38.912C88.9973 39.2533 88.8267 39.6516 88.8267 40.1067V47.7867ZM111.033 47.7867C108.701 47.7867 106.681 47.1609 104.975 45.9093C103.325 44.6009 102.5 42.6667 102.5 40.1067C102.5 37.9449 103.325 36.1244 104.975 34.6453C106.681 33.1662 108.701 32.4267 111.033 32.4267C111.602 32.4267 112.171 32.3982 112.74 32.3413V1.70667L119.567 0V29.0133V40.1067C119.567 45.2267 116.722 47.7867 111.033 47.7867ZM111.033 41.8133C111.488 41.8133 111.887 41.6427 112.228 41.3013C112.569 40.96 112.74 40.5618 112.74 40.1067C112.74 39.6516 112.569 39.2533 112.228 38.912C111.887 38.5707 111.488 38.4 111.033 38.4C110.578 38.4 110.18 38.5707 109.839 38.912C109.497 39.2533 109.327 39.6516 109.327 40.1067C109.327 40.5618 109.497 40.96 109.839 41.3013C110.18 41.6427 110.578 41.8133 111.033 41.8133ZM138.104 35.1573L132.984 39.2533C132.7 38.6844 132.216 38.4 131.533 38.4C131.078 38.4 130.68 38.5707 130.339 38.912C129.997 39.2533 129.827 39.6516 129.827 40.1067V47.7867L123 49.4933V29.0133C123.853 30.4924 125.048 31.4311 126.584 31.8293C128.177 32.2276 129.827 32.4267 131.533 32.4267C132.842 32.4267 134.065 32.6827 135.203 33.1947C136.34 33.7067 137.308 34.3609 138.104 35.1573ZM144.913 47.7867C144.003 47.7867 143.207 47.4453 142.524 46.7627C141.841 46.08 141.5 45.2836 141.5 44.3733C141.5 43.4062 141.841 42.6098 142.524 41.984C143.207 41.3013 144.003 40.96 144.913 40.96C145.88 40.96 146.677 41.3013 147.303 41.984C147.985 42.6098 148.327 43.4062 148.327 44.3733C148.327 45.2836 147.985 46.08 147.303 46.7627C146.677 47.4453 145.88 47.7867 144.913 47.7867Z" fill="#FFFFFF"/>
</svg>
